<svg width="64" height="64" viewBox="0 0 64 64" fill="none" xmlns="http://www.w3.org/2000/svg">
<rect width="64" height="64" rx="12" fill="white"/>
<path d="M19.388 34.072C19.108 34.072 18.838 34.022 18.578 33.922C18.322 33.822 18.094 33.678 17.894 33.49C17.694 33.302 17.536 33.074 17.42 32.806C17.304 32.538 17.246 32.236 17.246 31.9C17.246 31.564 17.304 31.262 17.42 30.994C17.536 30.726 17.694 30.498 17.894 30.31C18.094 30.122 18.322 29.978 18.578 29.878C18.838 29.778 19.108 29.728 19.388 29.728C19.672 29.728 19.942 29.778 20.198 29.878C20.458 29.978 20.688 30.122 20.888 30.31C21.088 30.498 21.246 30.726 21.362 30.994C21.478 31.262 21.536 31.564 21.536 31.9C21.536 32.236 21.478 32.538 21.362 32.806C21.246 33.074 21.088 33.302 20.888 33.49C20.688 33.678 20.458 33.822 20.198 33.922C19.942 34.022 19.672 34.072 19.388 34.072ZM19.388 33.376C19.612 33.376 19.828 33.324 20.036 33.22C20.244 33.112 20.414 32.948 20.546 32.728C20.678 32.508 20.744 32.232 20.744 31.9C20.744 31.564 20.678 31.286 20.546 31.066C20.414 30.846 20.244 30.684 20.036 30.58C19.828 30.472 19.612 30.418 19.388 30.418C19.168 30.418 18.954 30.472 18.746 30.58C18.538 30.684 18.368 30.846 18.236 31.066C18.104 31.286 18.038 31.564 18.038 31.9C18.038 32.232 18.104 32.508 18.236 32.728C18.368 32.948 18.538 33.112 18.746 33.22C18.954 33.324 19.168 33.376 19.388 33.376ZM23.3353 34.072C23.0473 34.072 22.7993 34.002 22.5913 33.862C22.3873 33.718 22.2293 33.528 22.1173 33.292C22.0093 33.052 21.9553 32.788 21.9553 32.5C21.9553 32.212 22.0113 31.952 22.1233 31.72C22.2353 31.484 22.3953 31.298 22.6033 31.162C22.8113 31.022 23.0553 30.952 23.3353 30.952C23.5273 30.952 23.7093 30.992 23.8813 31.072C24.0573 31.152 24.2053 31.268 24.3253 31.42V29.8H25.0993V34H24.3253V33.574C24.2253 33.738 24.0853 33.862 23.9053 33.946C23.7253 34.03 23.5353 34.072 23.3353 34.072ZM23.5333 33.4C23.6933 33.4 23.8313 33.362 23.9473 33.286C24.0673 33.21 24.1613 33.106 24.2293 32.974C24.2973 32.838 24.3313 32.684 24.3313 32.512C24.3313 32.3 24.2893 32.13 24.2053 32.002C24.1213 31.87 24.0173 31.774 23.8933 31.714C23.7693 31.654 23.6473 31.624 23.5273 31.624C23.3713 31.624 23.2333 31.662 23.1133 31.738C22.9973 31.814 22.9053 31.918 22.8373 32.05C22.7693 32.178 22.7353 32.328 22.7353 32.5C22.7353 32.668 22.7693 32.82 22.8373 32.956C22.9053 33.092 22.9993 33.2 23.1193 33.28C23.2393 33.36 23.3773 33.4 23.5333 33.4ZM26.8012 34.072C26.5452 34.072 26.3272 34.018 26.1472 33.91C25.9672 33.798 25.8292 33.646 25.7332 33.454C25.6372 33.258 25.5892 33.036 25.5892 32.788V31.024H26.3512V32.674C26.3512 32.894 26.4072 33.074 26.5192 33.214C26.6352 33.354 26.8032 33.424 27.0232 33.424C27.2512 33.424 27.4212 33.356 27.5332 33.22C27.6452 33.084 27.7012 32.902 27.7012 32.674V31.024H28.4692V34H27.7012V33.652C27.6012 33.788 27.4692 33.892 27.3052 33.964C27.1452 34.036 26.9772 34.072 26.8012 34.072ZM30.4583 34.072C30.1583 34.072 29.8903 34.008 29.6543 33.88C29.4223 33.748 29.2403 33.564 29.1083 33.328C28.9763 33.092 28.9103 32.82 28.9103 32.512C28.9103 32.188 28.9803 31.91 29.1203 31.678C29.2643 31.442 29.4543 31.262 29.6903 31.138C29.9303 31.014 30.1943 30.952 30.4823 30.952C30.7823 30.952 31.0503 31.018 31.2863 31.15C31.5223 31.278 31.7083 31.458 31.8443 31.69C31.9843 31.922 32.0543 32.196 32.0543 32.512C32.0543 32.812 31.9863 33.08 31.8503 33.316C31.7143 33.552 31.5263 33.738 31.2863 33.874C31.0503 34.006 30.7743 34.072 30.4583 34.072ZM30.4703 33.406C30.6303 33.406 30.7683 33.366 30.8843 33.286C31.0043 33.202 31.0983 33.092 31.1663 32.956C31.2343 32.816 31.2683 32.664 31.2683 32.5C31.2683 32.312 31.2303 32.152 31.1543 32.02C31.0823 31.888 30.9863 31.788 30.8663 31.72C30.7463 31.652 30.6143 31.618 30.4703 31.618C30.3143 31.618 30.1763 31.656 30.0563 31.732C29.9403 31.808 29.8483 31.914 29.7803 32.05C29.7163 32.182 29.6843 32.336 29.6843 32.512C29.6843 32.688 29.7183 32.844 29.7863 32.98C29.8583 33.116 29.9543 33.222 30.0743 33.298C30.1943 33.37 30.3263 33.406 30.4703 33.406ZM32.4985 34V31.024H33.2605V31.372C33.3645 31.232 33.5025 31.128 33.6745 31.06C33.8505 30.988 34.0265 30.952 34.2025 30.952C34.5465 30.952 34.8285 31.064 35.0485 31.288C35.2685 31.508 35.3785 31.828 35.3785 32.248V34H34.6165V32.35C34.6165 32.126 34.5585 31.946 34.4425 31.81C34.3305 31.67 34.1645 31.6 33.9445 31.6C33.7245 31.6 33.5545 31.67 33.4345 31.81C33.3185 31.946 33.2605 32.126 33.2605 32.35V34H32.4985ZM35.8677 34V29.8H36.6357V34H35.8677ZM37.5942 30.64C37.4582 30.64 37.3402 30.592 37.2402 30.496C37.1442 30.396 37.0962 30.278 37.0962 30.142C37.0962 30.002 37.1442 29.884 37.2402 29.788C37.3402 29.692 37.4582 29.644 37.5942 29.644C37.7342 29.644 37.8522 29.692 37.9482 29.788C38.0442 29.884 38.0922 30.002 38.0922 30.142C38.0922 30.278 38.0442 30.396 37.9482 30.496C37.8522 30.592 37.7342 30.64 37.5942 30.64ZM37.2102 34V31.024H37.9782V34H37.2102ZM38.5395 34V31.024H39.3015V31.372C39.4055 31.232 39.5435 31.128 39.7155 31.06C39.8915 30.988 40.0675 30.952 40.2435 30.952C40.5875 30.952 40.8695 31.064 41.0895 31.288C41.3095 31.508 41.4195 31.828 41.4195 32.248V34H40.6575V32.35C40.6575 32.126 40.5995 31.946 40.4835 31.81C40.3715 31.67 40.2055 31.6 39.9855 31.6C39.7655 31.6 39.5955 31.67 39.4755 31.81C39.3595 31.946 39.3015 32.126 39.3015 32.35V34H38.5395ZM43.3307 34.072C43.0187 34.072 42.7487 34.004 42.5207 33.868C42.2967 33.732 42.1227 33.546 41.9987 33.31C41.8747 33.074 41.8127 32.808 41.8127 32.512C41.8127 32.196 41.8767 31.922 42.0047 31.69C42.1327 31.458 42.3107 31.278 42.5387 31.15C42.7667 31.018 43.0307 30.952 43.3307 30.952C43.6267 30.952 43.8847 31.016 44.1047 31.144C44.3287 31.272 44.5027 31.448 44.6267 31.672C44.7547 31.896 44.8187 32.154 44.8187 32.446C44.8187 32.498 44.8167 32.55 44.8127 32.602C44.8087 32.65 44.8027 32.696 44.7947 32.74H42.5867C42.5987 32.88 42.6347 33.004 42.6947 33.112C42.7587 33.216 42.8427 33.298 42.9467 33.358C43.0547 33.414 43.1767 33.442 43.3127 33.442C43.4527 33.442 43.5727 33.412 43.6727 33.352C43.7767 33.292 43.8587 33.2 43.9187 33.076H44.7407C44.6847 33.252 44.5947 33.416 44.4707 33.568C44.3467 33.72 44.1887 33.842 43.9967 33.934C43.8087 34.026 43.5867 34.072 43.3307 34.072ZM42.5927 32.23H44.0267C44.0227 32.03 43.9487 31.872 43.8047 31.756C43.6647 31.64 43.4987 31.582 43.3067 31.582C43.1427 31.582 42.9907 31.634 42.8507 31.738C42.7107 31.838 42.6247 32.002 42.5927 32.23Z" fill="black"/>
</svg>
